<?xml version="1.0" encoding="UTF-8"?>
<svg id="Ebene_1" data-name="Ebene 1" xmlns="http://www.w3.org/2000/svg" viewBox="0 0 2696.98 770.57">
  <defs>
    <style>
      .cls-1 {
        fill: #05171d;
        stroke-width: 0px;
      }
    </style>
  </defs>
  <g>
    <path class="cls-1" d="m210.03,370.48h-2.38c-7.13,27.08-34.67,47.52-66.99,47.52-63.19,0-95.97-46.1-95.97-130.67s32.78-130.19,95.97-130.19c32.32,0,59.86,19.96,66.99,47.51h2.38V60.68h70.32v351.61h-70.32v-41.81Zm0-46.09v-73.64c0-22.81-19.48-36.59-46.09-36.59s-46.09,20.43-46.09,51.8v43.24c0,31.36,19.48,51.79,46.09,51.79s46.09-13.78,46.09-36.58"/>
    <path class="cls-1" d="m350.65,217.48h-35.16v-54.64h35.16v-29.46c0-48,26.13-72.7,74.6-72.7h45.61v54.65h-49.9v47.51h49.9v54.64h-49.9v194.81h-70.32v-194.81Z"/>
    <polygon class="cls-1" points="501.83 60.68 572.15 60.68 572.15 268.33 575 268.33 605.89 222.23 655.78 162.84 733.7 162.84 650.55 258.34 743.2 412.29 659.58 412.29 603.51 306.81 572.15 341.97 572.15 412.29 501.83 412.29 501.83 60.68"/>
    <rect class="cls-1" x="771.74" y="162.84" width="70.32" height="249.45"/>
    <path class="cls-1" d="m806.9,46.57c20.96,0,38.01,17.05,38.01,38.01s-17.05,38.01-38.01,38.01-38.01-17.05-38.01-38.01,17.06-38.01,38.01-38.01m0-4.75c-23.61,0-42.76,19.15-42.76,42.76s19.15,42.76,42.76,42.76,42.76-19.15,42.76-42.76-19.15-42.76-42.76-42.76"/>
    <path class="cls-1" d="m837.31,697.43h-60.82v-239.94h60.82v239.94Zm4.75-244.7h-70.32v249.45h70.32v-249.45Z"/>
    <g>
      <path class="cls-1" d="m710.41,647.54v-109.29c0-58.92-36.11-91.22-106.44-91.22-52.26,0-80.77,18.05-100.72,47.51l41.81,37.06c10.93-15.2,25.66-29.46,53.69-29.46,29.46,0,41.33,15.2,41.33,39.43v15.68h-39.42c-66.06,0-106.91,25.19-106.91,77.93,0,43.24,27.56,72.69,77.44,72.69,35.05,0,63.89-13.96,74.36-39.92h2.38c6.68,21,22.97,34.22,44.93,34.22h40.83v-54.64h-23.28Zm18.53,49.89h-36.08c-20.72,0-36.15-13.03-41.53-34.22h-8.8c-8.71,25.38-36.29,39.92-71.34,39.92-45.52,0-72.69-25.39-72.69-67.94,0-60.48,55.55-73.18,102.16-73.18h44.18v-20.43c0-28.91-15.94-44.19-46.09-44.19-28.04,0-43.84,13.77-54.39,27.23l-34.78-30.83c21.11-29.03,50.43-42.02,94.4-42.02,66.53,0,101.69,29.9,101.69,86.47v114.04h23.28v45.14Z"/>
      <path class="cls-1" d="m644.84,597.18v-4.75h-38.96c-40.1,0-46.09,20.54-46.09,32.78v7.13c0,11.71,4.87,31.36,37.53,31.36,29.3,0,47.51-14.21,47.51-37.06v-29.46Zm-4.75,29.46c0,22.81-19.48,32.31-42.76,32.31-20.9,0-32.78-8.55-32.78-26.61v-7.13c0-18.05,14.25-28.03,41.34-28.03h34.21v29.46Z"/>
    </g>
  </g>
  <g>
    <path class="cls-1" d="m947.81,179.6h31.86c22.83,0,37.76,14.68,37.76,43.78s-14.93,43.78-37.76,43.78h-31.86v-87.56Zm31.86,72.88c12.29,0,20.2-7.28,20.2-22.2v-13.8c0-14.93-7.9-22.2-20.2-22.2h-15.3v58.21h15.3Z"/>
    <path class="cls-1" d="m1026.69,234.29c0-20.7,11.16-34.12,30.36-34.12,20.45,0,29.85,15.05,29.85,32.99v5.27h-43.53v1.63c0,9.41,5.39,15.81,15.93,15.81,7.9,0,12.67-3.76,16.68-8.91l8.66,9.66c-5.39,7.4-14.93,12.04-27.1,12.04-19.32,0-30.86-13.42-30.86-34.37Zm16.68-6.77v1h26.84v-1.13c0-9.03-4.64-15.18-12.92-15.18s-13.92,6.27-13.92,15.3Z"/>
    <path class="cls-1" d="m1136.83,256.24h-.63c-2.26,6.52-7.53,12.42-18.31,12.42-13.42,0-20.95-9.28-20.95-25.59v-41.4h16.06v39.77c0,9.03,3.39,13.92,11.04,13.92,6.4,0,12.79-3.39,12.79-10.41v-43.28h16.06v65.48h-16.06v-10.91Z"/>
    <path class="cls-1" d="m1171.32,250.47v-36h-9.66v-12.79h5.02c4.77,0,6.27-2.26,6.27-6.77v-11.17h14.43v17.94h13.42v12.79h-13.42v39.89h12.42v12.79h-11.54c-11.04,0-16.94-6.02-16.94-16.68Z"/>
    <path class="cls-1" d="m1207.1,256.62l9.78-9.53c4.77,5.52,10.54,8.91,17.94,8.91s10.91-2.88,10.91-7.53c0-3.76-2.26-6.15-8.03-6.9l-6.52-.88c-14.05-1.76-21.83-7.9-21.83-19.82,0-12.67,9.91-20.7,24.84-20.7,12.79,0,19.32,3.76,25.59,10.29l-9.41,9.41c-3.76-4.01-9.28-7.02-15.68-7.02-6.9,0-9.91,2.76-9.91,6.77,0,4.39,2.38,6.4,8.53,7.4l6.65.88c14.3,2.01,21.2,8.4,21.2,19.32,0,12.67-10.66,21.45-26.97,21.45-12.42,0-20.57-4.52-27.1-12.04Z"/>
    <path class="cls-1" d="m1268.41,234.29c0-20.95,10.91-34.12,30.23-34.12,13.17,0,21.83,6.27,25.72,16.56l-13.17,5.9c-1.5-5.52-5.64-9.53-12.54-9.53-8.91,0-13.42,6.27-13.42,15.43v11.92c0,9.16,4.52,15.3,13.42,15.3,7.65,0,11.42-4.39,13.8-10.29l12.29,5.9c-4.26,11.54-13.42,17.31-26.09,17.31-19.32,0-30.23-13.3-30.23-34.37Z"/>
    <path class="cls-1" d="m1333.51,174.33h16.06v38.26h.63c2.63-7.03,8.15-12.42,18.31-12.42,13.42,0,20.95,9.28,20.95,25.59v41.4h-16.06v-39.77c0-9.28-3.14-14.05-10.79-14.05-6.65,0-13.05,3.51-13.05,10.54v43.28h-16.06v-92.83Z"/>
    <path class="cls-1" d="m1399.97,234.29c0-20.7,11.16-34.12,30.36-34.12,20.45,0,29.85,15.05,29.85,32.99v5.27h-43.53v1.63c0,9.41,5.39,15.81,15.93,15.81,7.9,0,12.67-3.76,16.68-8.91l8.66,9.66c-5.39,7.4-14.93,12.04-27.1,12.04-19.32,0-30.86-13.42-30.86-34.37Zm16.68-6.77v1h26.84v-1.13c0-9.03-4.64-15.18-12.92-15.18s-13.92,6.27-13.92,15.3Z"/>
    <path class="cls-1" d="m1465.96,256.62l9.79-9.53c4.77,5.52,10.54,8.91,17.94,8.91s10.91-2.88,10.91-7.53c0-3.76-2.26-6.15-8.03-6.9l-6.52-.88c-14.05-1.76-21.83-7.9-21.83-19.82,0-12.67,9.91-20.7,24.84-20.7,12.79,0,19.32,3.76,25.59,10.29l-9.41,9.41c-3.76-4.01-9.28-7.02-15.68-7.02-6.9,0-9.91,2.76-9.91,6.77,0,4.39,2.38,6.4,8.53,7.4l6.65.88c14.3,2.01,21.2,8.4,21.2,19.32,0,12.67-10.66,21.45-26.97,21.45-12.42,0-20.57-4.52-27.1-12.04Z"/>
    <path class="cls-1" d="m1564.81,267.16v-87.56h56.32v14.68h-39.76v21.2h34.62v14.68h-34.62v37.01h-16.56Z"/>
    <path class="cls-1" d="m1627.01,234.29c0-20.95,11.67-34.12,30.36-34.12s30.48,13.17,30.48,34.12-11.67,34.37-30.48,34.37-30.36-13.3-30.36-34.37Zm44.03,6.15v-12.17c0-9.78-5.27-15.18-13.67-15.18s-13.55,5.39-13.55,15.18v12.17c0,9.91,5.27,15.3,13.55,15.3s13.67-5.39,13.67-15.3Z"/>
    <path class="cls-1" d="m1698.91,267.16v-65.48h16.06v13.55h.63c1.63-6.9,6.9-13.55,17.31-13.55h3.51v15.18h-5.02c-10.79,0-16.43,3.01-16.43,10.16v40.14h-16.06Z"/>
    <path class="cls-1" d="m1740.99,256.62l9.78-9.53c4.77,5.52,10.54,8.91,17.94,8.91s10.91-2.88,10.91-7.53c0-3.76-2.26-6.15-8.03-6.9l-6.52-.88c-14.05-1.76-21.83-7.9-21.83-19.82,0-12.67,9.91-20.7,24.84-20.7,12.79,0,19.32,3.76,25.59,10.29l-9.41,9.41c-3.76-4.01-9.28-7.02-15.68-7.02-6.9,0-9.91,2.76-9.91,6.77,0,4.39,2.38,6.4,8.53,7.4l6.65.88c14.3,2.01,21.2,8.4,21.2,19.32,0,12.67-10.66,21.45-26.97,21.45-12.42,0-20.57-4.52-27.1-12.04Z"/>
    <path class="cls-1" d="m1802.31,234.29c0-20.95,10.91-34.12,30.23-34.12,13.17,0,21.83,6.27,25.72,16.56l-13.17,5.9c-1.5-5.52-5.64-9.53-12.54-9.53-8.91,0-13.42,6.27-13.42,15.43v11.92c0,9.16,4.52,15.3,13.42,15.3,7.65,0,11.42-4.39,13.8-10.29l12.29,5.9c-4.26,11.54-13.42,17.31-26.09,17.31-19.32,0-30.23-13.3-30.23-34.37Z"/>
    <path class="cls-1" d="m1867.41,174.33h16.06v38.26h.63c2.63-7.03,8.15-12.42,18.31-12.42,13.42,0,20.95,9.28,20.95,25.59v41.4h-16.06v-39.77c0-9.28-3.14-14.05-10.79-14.05-6.65,0-13.05,3.51-13.05,10.54v43.28h-16.06v-92.83Z"/>
    <path class="cls-1" d="m1976.7,256.24h-.63c-2.26,6.52-7.53,12.42-18.31,12.42-13.42,0-20.95-9.28-20.95-25.59v-41.4h16.06v39.77c0,9.03,3.39,13.92,11.04,13.92,6.4,0,12.8-3.39,12.8-10.41v-43.28h16.06v65.48h-16.06v-10.91Z"/>
    <path class="cls-1" d="m2007.35,267.16v-65.48h16.06v10.91h.63c2.63-7.03,8.15-12.42,18.31-12.42,13.42,0,20.95,9.28,20.95,25.59v41.4h-16.06v-39.77c0-9.28-3.14-14.05-10.79-14.05-6.65,0-13.05,3.51-13.05,10.54v43.28h-16.06Z"/>
    <path class="cls-1" d="m2102.08,293.75c-22.08,0-30.48-5.77-30.48-15.43,0-7.28,4.39-11.42,11.67-12.54v-1.38c-5.39-1.38-8.41-5.65-8.41-10.91,0-6.77,5.77-10.16,12.04-11.54v-.5c-7.9-3.64-11.92-10.41-11.92-19.07,0-13.3,9.41-22.2,27.1-22.2,4.01,0,8.15.5,11.42,1.63v-2.13c0-6.4,3.26-9.53,9.28-9.53h10.16v12.29h-13.92v1.76c6.77,3.76,10.16,10.16,10.16,18.19,0,13.17-9.28,21.95-27.09,21.95-3.76,0-7.15-.38-10.04-1.13-2.51,1.13-4.64,3.01-4.64,5.9,0,3.26,2.76,4.89,8.53,4.89h17.56c16.06,0,22.96,6.9,22.96,18.69,0,13.67-9.28,21.07-34.37,21.07Zm8.15-25.84h-22.33c-2.38,1.76-3.39,4.14-3.39,6.77,0,5.02,3.76,8.03,13.8,8.03h8.03c10.41,0,15.05-2.63,15.05-8.15,0-4.14-3.01-6.65-11.16-6.65Zm3.64-44.53v-2.13c0-6.65-4.14-10.04-11.79-10.04s-11.79,3.39-11.79,10.04v2.13c0,6.52,4.14,10.04,11.79,10.04s11.79-3.51,11.79-10.04Z"/>
    <path class="cls-1" d="m2138.45,256.62l9.79-9.53c4.77,5.52,10.54,8.91,17.94,8.91s10.91-2.88,10.91-7.53c0-3.76-2.26-6.15-8.03-6.9l-6.52-.88c-14.05-1.76-21.83-7.9-21.83-19.82,0-12.67,9.91-20.7,24.84-20.7,12.79,0,19.32,3.76,25.59,10.29l-9.41,9.41c-3.76-4.01-9.28-7.02-15.68-7.02-6.9,0-9.91,2.76-9.91,6.77,0,4.39,2.38,6.4,8.53,7.4l6.65.88c14.3,2.01,21.2,8.4,21.2,19.32,0,12.67-10.66,21.45-26.97,21.45-12.42,0-20.57-4.52-27.1-12.04Z"/>
    <path class="cls-1" d="m2199.66,267.16v-12.79l34-40.02h-32.87v-12.67h51.68v12.42l-34.25,40.27h35.12v12.79h-53.69Z"/>
    <path class="cls-1" d="m2258.89,234.29c0-20.7,11.17-34.12,30.36-34.12,20.45,0,29.86,15.05,29.86,32.99v5.27h-43.53v1.63c0,9.41,5.39,15.81,15.93,15.81,7.9,0,12.67-3.76,16.68-8.91l8.66,9.66c-5.39,7.4-14.93,12.04-27.1,12.04-19.32,0-30.86-13.42-30.86-34.37Zm16.68-6.77v1h26.84v-1.13c0-9.03-4.64-15.18-12.92-15.18s-13.92,6.27-13.92,15.3Z"/>
    <path class="cls-1" d="m2329.95,267.16v-65.48h16.06v10.91h.63c2.63-7.03,8.15-12.42,18.31-12.42,13.42,0,20.95,9.28,20.95,25.59v41.4h-16.06v-39.77c0-9.28-3.14-14.05-10.79-14.05-6.65,0-13.05,3.51-13.05,10.54v43.28h-16.06Z"/>
    <path class="cls-1" d="m2403.44,250.47v-36h-9.66v-12.79h5.02c4.77,0,6.27-2.26,6.27-6.77v-11.17h14.43v17.94h13.42v12.79h-13.42v39.89h12.42v12.79h-11.54c-11.04,0-16.94-6.02-16.94-16.68Z"/>
    <path class="cls-1" d="m2442.59,267.16v-65.48h16.06v13.55h.63c1.63-6.9,6.9-13.55,17.31-13.55h3.51v15.18h-5.02c-10.79,0-16.43,3.01-16.43,10.16v40.14h-16.06Z"/>
    <path class="cls-1" d="m2528.08,256.24h-.63c-2.26,6.52-7.53,12.42-18.31,12.42-13.42,0-20.95-9.28-20.95-25.59v-41.4h16.06v39.77c0,9.03,3.39,13.92,11.04,13.92,6.4,0,12.8-3.39,12.8-10.41v-43.28h16.06v65.48h-16.06v-10.91Z"/>
    <path class="cls-1" d="m2558.72,267.16v-65.48h16.06v10.91h.63c2.51-6.9,7.78-12.42,17.56-12.42,8.91,0,15.81,4.39,18.94,13.17h.25c2.38-7.28,9.66-13.17,20.07-13.17,12.79,0,20.07,9.28,20.07,25.59v41.4h-16.06v-39.77c0-9.41-3.39-14.05-10.54-14.05-6.27,0-12.17,3.51-12.17,10.54v43.28h-16.06v-39.77c0-9.41-3.39-14.05-10.54-14.05-6.15,0-12.17,3.51-12.17,10.54v43.28h-16.06Z"/>
    <path class="cls-1" d="m950.06,359.35h-9.66v-12.67h9.66v-9.41c0-11.54,6.27-17.94,18.06-17.94h11.42v12.8h-13.42v14.55h13.42v12.67h-13.42v52.81h-16.06v-52.81Z"/>
    <path class="cls-1" d="m1027.23,401.24h-.63c-2.26,6.52-7.53,12.42-18.31,12.42-13.42,0-20.95-9.28-20.95-25.59v-41.4h16.06v39.77c0,9.03,3.39,13.92,11.04,13.92,6.4,0,12.8-3.39,12.8-10.41v-43.28h16.06v65.48h-16.06v-10.91Zm-34-72.25v-2.63c0-4.14,2.38-7.28,8.91-7.28s8.91,3.14,8.91,7.28v2.63c0,4.14-2.38,7.28-8.91,7.28s-8.91-3.14-8.91-7.28Zm26.34,0v-2.63c0-4.14,2.38-7.28,8.91-7.28s8.91,3.14,8.91,7.28v2.63c0,4.14-2.38,7.28-8.91,7.28s-8.91-3.14-8.91-7.28Z"/>
    <path class="cls-1" d="m1057.88,412.16v-65.48h16.06v13.55h.63c1.63-6.9,6.9-13.55,17.31-13.55h3.51v15.18h-5.02c-10.79,0-16.43,3.01-16.43,10.16v40.14h-16.06Z"/>
    <path class="cls-1" d="m1166,372.52l-11.67,13.8v25.84h-16.56v-87.56h16.56v43.15h.63l12.42-16.43,21.7-26.72h19.07l-30.48,36.5,32.99,51.06h-19.69l-24.96-39.64Z"/>
    <path class="cls-1" d="m1255.34,401.24h-.63c-2.26,6.52-7.53,12.42-18.31,12.42-13.42,0-20.95-9.28-20.95-25.59v-41.4h16.06v39.77c0,9.03,3.39,13.92,11.04,13.92,6.4,0,12.79-3.39,12.79-10.41v-43.28h16.06v65.48h-16.06v-10.91Zm-34-72.25v-2.63c0-4.14,2.38-7.28,8.91-7.28s8.91,3.14,8.91,7.28v2.63c0,4.14-2.38,7.28-8.91,7.28s-8.91-3.14-8.91-7.28Zm26.34,0v-2.63c0-4.14,2.38-7.28,8.91-7.28s8.91,3.14,8.91,7.28v2.63c0,4.14-2.38,7.28-8.91,7.28s-8.91-3.14-8.91-7.28Z"/>
    <path class="cls-1" d="m1285.98,412.16v-65.48h16.06v10.91h.63c2.63-7.03,8.15-12.42,18.31-12.42,13.42,0,20.95,9.28,20.95,25.59v41.4h-16.06v-39.77c0-9.28-3.14-14.05-10.79-14.05-6.65,0-13.05,3.51-13.05,10.54v43.28h-16.06Z"/>
    <path class="cls-1" d="m1350.6,401.62l9.79-9.53c4.77,5.52,10.54,8.91,17.94,8.91s10.91-2.88,10.91-7.53c0-3.76-2.26-6.15-8.03-6.9l-6.52-.88c-14.05-1.76-21.83-7.9-21.83-19.82,0-12.67,9.91-20.7,24.84-20.7,12.79,0,19.32,3.76,25.59,10.29l-9.41,9.41c-3.76-4.01-9.28-7.02-15.68-7.02-6.9,0-9.91,2.76-9.91,6.77,0,4.39,2.38,6.4,8.53,7.4l6.65.88c14.3,2.01,21.2,8.4,21.2,19.32,0,12.67-10.66,21.45-26.97,21.45-12.42,0-20.57-4.52-27.1-12.04Z"/>
    <path class="cls-1" d="m1420.37,395.47v-36h-9.66v-12.79h5.02c4.77,0,6.27-2.26,6.27-6.77v-11.17h14.43v17.94h13.42v12.79h-13.42v39.89h12.42v12.79h-11.54c-11.04,0-16.93-6.02-16.93-16.68Z"/>
    <path class="cls-1" d="m1475.28,412.16c-10.91,0-16.06-5.77-16.06-15.81v-77.02h16.06v80.03h8.66v12.79h-8.66Z"/>
    <path class="cls-1" d="m1491.09,329.11v-2.51c0-4.64,2.76-8.03,9.41-8.03s9.41,3.39,9.41,8.03v2.51c0,4.64-2.88,8.03-9.41,8.03s-9.41-3.39-9.41-8.03Zm1.38,17.56h16.06v65.48h-16.06v-65.48Z"/>
    <path class="cls-1" d="m1519.26,379.29c0-20.95,10.91-34.12,30.23-34.12,13.17,0,21.83,6.27,25.72,16.56l-13.17,5.9c-1.5-5.52-5.64-9.53-12.54-9.53-8.91,0-13.42,6.27-13.42,15.43v11.92c0,9.16,4.52,15.3,13.42,15.3,7.65,0,11.42-4.39,13.8-10.29l12.29,5.9c-4.26,11.54-13.42,17.31-26.09,17.31-19.32,0-30.23-13.3-30.23-34.37Z"/>
    <path class="cls-1" d="m1584.36,319.33h16.06v38.26h.63c2.63-7.03,8.15-12.42,18.31-12.42,13.42,0,20.95,9.28,20.95,25.59v41.4h-16.06v-39.77c0-9.28-3.14-14.05-10.79-14.05-6.65,0-13.05,3.51-13.05,10.54v43.28h-16.06v-92.83Z"/>
    <path class="cls-1" d="m1650.81,379.29c0-20.7,11.16-34.12,30.36-34.12,20.45,0,29.85,15.05,29.85,32.99v5.27h-43.53v1.63c0,9.41,5.39,15.81,15.93,15.81,7.9,0,12.67-3.76,16.68-8.91l8.66,9.66c-5.39,7.4-14.93,12.04-27.1,12.04-19.32,0-30.86-13.42-30.86-34.37Zm16.68-6.77v1h26.84v-1.13c0-9.03-4.64-15.18-12.92-15.18s-13.92,6.27-13.92,15.3Z"/>
    <path class="cls-1" d="m1752.17,412.16v-13.3h11.54v-60.97h-11.54v-13.3h39.76v13.3h-11.67v60.97h11.67v13.3h-39.76Z"/>
    <path class="cls-1" d="m1802.93,412.16v-65.48h16.06v10.91h.63c2.63-7.03,8.15-12.42,18.31-12.42,13.42,0,20.95,9.28,20.95,25.59v41.4h-16.06v-39.77c0-9.28-3.14-14.05-10.79-14.05-6.65,0-13.05,3.51-13.05,10.54v43.28h-16.06Z"/>
    <path class="cls-1" d="m1876.43,395.47v-36h-9.66v-12.79h5.02c4.77,0,6.27-2.26,6.27-6.77v-11.17h14.43v17.94h13.42v12.79h-13.42v39.89h12.42v12.79h-11.54c-11.04,0-16.93-6.02-16.93-16.68Z"/>
    <path class="cls-1" d="m1911.32,379.29c0-20.7,11.17-34.12,30.36-34.12,20.45,0,29.86,15.05,29.86,32.99v5.27h-43.53v1.63c0,9.41,5.39,15.81,15.93,15.81,7.9,0,12.67-3.76,16.68-8.91l8.66,9.66c-5.39,7.4-14.93,12.04-27.1,12.04-19.32,0-30.86-13.42-30.86-34.37Zm16.68-6.77v1h26.84v-1.13c0-9.03-4.64-15.18-12.92-15.18s-13.92,6.27-13.92,15.3Z"/>
    <path class="cls-1" d="m1998.21,412.16c-10.91,0-16.06-5.77-16.06-15.81v-77.02h16.06v80.03h8.66v12.79h-8.66Z"/>
    <path class="cls-1" d="m2031.45,412.16c-10.91,0-16.06-5.77-16.06-15.81v-77.02h16.06v80.03h8.66v12.79h-8.66Z"/>
    <path class="cls-1" d="m2047.26,329.11v-2.51c0-4.64,2.76-8.03,9.41-8.03s9.41,3.39,9.41,8.03v2.51c0,4.64-2.89,8.03-9.41,8.03s-9.41-3.39-9.41-8.03Zm1.38,17.56h16.06v65.48h-16.06v-65.48Z"/>
    <path class="cls-1" d="m2104.13,438.75c-22.08,0-30.48-5.77-30.48-15.43,0-7.28,4.39-11.42,11.67-12.54v-1.38c-5.39-1.38-8.4-5.65-8.4-10.91,0-6.77,5.77-10.16,12.04-11.54v-.5c-7.9-3.64-11.92-10.41-11.92-19.07,0-13.3,9.41-22.2,27.1-22.2,4.01,0,8.15.5,11.42,1.63v-2.13c0-6.4,3.26-9.53,9.28-9.53h10.16v12.29h-13.92v1.76c6.77,3.76,10.16,10.16,10.16,18.19,0,13.17-9.28,21.95-27.1,21.95-3.76,0-7.15-.38-10.04-1.13-2.51,1.13-4.64,3.01-4.64,5.9,0,3.26,2.76,4.89,8.53,4.89h17.56c16.06,0,22.96,6.9,22.96,18.69,0,13.67-9.28,21.07-34.37,21.07Zm8.15-25.84h-22.33c-2.38,1.76-3.39,4.14-3.39,6.77,0,5.02,3.76,8.03,13.8,8.03h8.03c10.41,0,15.05-2.63,15.05-8.15,0-4.14-3.01-6.65-11.17-6.65Zm3.64-44.53v-2.13c0-6.65-4.14-10.04-11.79-10.04s-11.79,3.39-11.79,10.04v2.13c0,6.52,4.14,10.04,11.79,10.04s11.79-3.51,11.79-10.04Z"/>
    <path class="cls-1" d="m2139.62,379.29c0-20.7,11.16-34.12,30.36-34.12,20.45,0,29.85,15.05,29.85,32.99v5.27h-43.53v1.63c0,9.41,5.39,15.81,15.93,15.81,7.9,0,12.67-3.76,16.68-8.91l8.66,9.66c-5.39,7.4-14.93,12.04-27.1,12.04-19.32,0-30.86-13.42-30.86-34.37Zm16.68-6.77v1h26.84v-1.13c0-9.03-4.64-15.18-12.92-15.18s-13.92,6.27-13.92,15.3Z"/>
    <path class="cls-1" d="m2210.68,412.16v-65.48h16.06v10.91h.63c2.63-7.03,8.15-12.42,18.31-12.42,13.42,0,20.95,9.28,20.95,25.59v41.4h-16.06v-39.77c0-9.28-3.14-14.05-10.79-14.05-6.65,0-13.05,3.51-13.05,10.54v43.28h-16.06Z"/>
    <path class="cls-1" d="m2275.74,412.16v-12.79l33.99-40.02h-32.87v-12.67h51.68v12.42l-34.25,40.27h35.12v12.79h-53.69Z"/>
    <path class="cls-1" d="m998.11,543.86h-.75c-4.01,8.15-12.17,14.8-24.59,14.8-16.56,0-28.22-12.04-28.22-35,0-30.36,16.93-55.57,44.78-55.57,15.3,0,26.72,7.53,30.48,20.32l-11.79,5.77c-2.76-8.78-9.41-13.92-19.82-13.92-14.17,0-23.58,9.66-26.59,25.09l-2.63,13.42c-.5,2.51-.75,4.89-.75,7.28,0,13.17,7.15,20.45,18.19,20.45s21.33-6.9,23.58-18.31l1.13-5.77h-17.44l2.38-11.79h30.48l-9.28,46.54h-11.92l2.76-13.3Z"/>
    <path class="cls-1" d="m1025.44,531.06c0-21.33,13.67-40.64,34.62-40.64,10.54,0,21.95,5.02,21.95,17.81,0,13.8-13.42,21.33-43.28,21.95-.25,1.63-.38,3.14-.38,4.14,0,8.03,4.39,13.3,13.8,13.3,7.15,0,12.79-3.14,18.19-9.78l8.28,6.9c-8.15,10.16-17.19,13.92-27.35,13.92-16.81,0-25.84-10.16-25.84-27.6Zm15.43-13.3l-.63,3.26c23.83-1,28.85-4.77,28.85-12.17,0-6.52-5.14-8.03-10.04-8.03-9.03,0-16.18,6.65-18.19,16.93Z"/>
    <path class="cls-1" d="m1085.9,557.16l13.05-65.23h13.05l-2.76,13.92h.75c3.14-6.65,8.91-13.92,19.32-13.92h3.64l-2.63,12.92h-4.39c-11.54,0-17.69,5.9-19.57,15.43l-7.4,36.88h-13.05Z"/>
    <path class="cls-1" d="m1129.63,557.16l13.05-65.23h13.05l-2.76,13.92h.63c4.77-9.91,10.66-15.43,20.32-15.43s14.55,5.77,15.18,15.43h.63c4.64-9.78,11.04-15.43,20.95-15.43,10.41,0,15.81,6.52,15.81,17.31,0,3.14-.38,6.27-1.13,9.79l-5.77,28.73h7.9l-2.13,10.91h-9.91c-5.64,0-9.16-2.89-9.16-8.15,0-1.13.12-2.13.38-3.14l5.65-28.35c.5-2.51.88-4.89.88-6.9,0-5.65-2.51-8.91-8.03-8.91-4.01,0-7.53,2.01-10.66,5.52-3.64,4.01-6.27,9.79-7.28,14.8l-7.02,35.12h-13.05l7.9-39.51c.5-2.51.88-5.02.88-7.15,0-5.52-2.38-8.78-7.65-8.78-4.39,0-8.03,2.26-10.91,5.52-3.76,4.27-6.65,9.79-7.65,14.8l-7.02,35.12h-13.05Z"/>
    <path class="cls-1" d="m1285.95,557.16c-5.9,0-9.53-3.26-9.53-8.53,0-1.25.13-2.63.38-3.64l.5-2.38h-.5c-5.27,10.66-11.29,16.06-21.2,16.06-12.04,0-18.82-9.53-18.82-23.96,0-22.83,11.79-44.28,31.24-44.28,8.4,0,15.3,4.77,16.68,12.42h.63l2.13-10.91h13.05l-10.91,54.32h8.4l-2.13,10.91h-9.91Zm-12.67-15.93c3.64-3.89,6.02-8.78,7.15-14.55l2.63-13.17c1.13-5.77-3.76-11.92-12.54-11.92-9.66,0-15.55,6.15-17.81,17.56l-1.88,9.16c-.38,2.01-.63,4.77-.63,6.77,0,7.28,3.51,12.42,10.41,12.42,5.39,0,9.28-2.63,12.67-6.27Z"/>
    <path class="cls-1" d="m1305.77,557.16l13.05-65.23h13.05l-2.76,13.92h.63c4.77-10.04,11.04-15.43,20.7-15.43,10.79,0,16.31,6.52,16.31,17.56,0,2.76-.38,5.52-1,8.78l-5.9,29.48h7.9l-2.13,10.91h-9.91c-5.52,0-9.03-2.89-9.03-8.28,0-1,0-1.51.25-3.01l5.64-28.22c.5-2.51.75-4.89.75-6.9,0-5.77-2.51-9.03-8.53-9.03-4.52,0-8.28,2.01-11.42,5.52-3.64,4.01-6.52,9.66-7.53,14.8l-7.02,35.12h-13.05Z"/>
    <path class="cls-1" d="m1421.42,557.16h-13.55l17.56-87.56h32.49c15.93,0,23.71,8.66,23.71,21.7s-8.41,25.21-22.33,28.73l11.79,37.13h-14.55l-10.54-35.5h-17.44l-7.15,35.5Zm30.73-47.04c7.15,0,12.17-3.76,13.92-11.29,1-4.52,1.51-6.9,1.51-8.53,0-5.02-2.88-8.66-10.29-8.66h-20.7l-5.64,28.48h21.2Z"/>
    <path class="cls-1" d="m1485.28,531.06c0-21.33,13.67-40.64,34.62-40.64,10.54,0,21.95,5.02,21.95,17.81,0,13.8-13.42,21.33-43.28,21.95-.25,1.63-.38,3.14-.38,4.14,0,8.03,4.39,13.3,13.8,13.3,7.15,0,12.79-3.14,18.19-9.78l8.28,6.9c-8.15,10.16-17.19,13.92-27.35,13.92-16.81,0-25.84-10.16-25.84-27.6Zm15.43-13.3l-.63,3.26c23.83-1,28.85-4.77,28.85-12.17,0-6.52-5.14-8.03-10.04-8.03-9.03,0-16.18,6.65-18.19,16.93Z"/>
    <path class="cls-1" d="m1545.11,547l8.53-7.78c4.14,5.52,9.41,8.66,16.93,8.66,8.28,0,13.17-4.01,13.17-10.16,0-3.51-1.76-6.27-8.03-7.4l-5.65-1c-10.41-1.76-17.44-6.52-17.44-17.06,0-11.54,8.15-21.83,25.34-21.83,9.91,0,17.31,3.39,22.58,9.91l-8.53,7.78c-3.01-4.01-7.9-6.9-14.8-6.9-7.9,0-11.92,3.89-11.92,9.41,0,3.64,1.88,6.27,8.03,7.4l5.65.88c10.79,1.88,17.44,6.77,17.44,17.31,0,12.92-10.04,22.45-26.09,22.45-10.29,0-19.82-4.14-25.21-11.67Z"/>
    <path class="cls-1" d="m1605.97,531.06c0-21.33,13.67-40.64,34.62-40.64,10.54,0,21.95,5.02,21.95,17.81,0,13.8-13.42,21.33-43.28,21.95-.25,1.63-.38,3.14-.38,4.14,0,8.03,4.39,13.3,13.8,13.3,7.15,0,12.79-3.14,18.19-9.78l8.28,6.9c-8.15,10.16-17.19,13.92-27.35,13.92-16.81,0-25.84-10.16-25.84-27.6Zm15.43-13.3l-.63,3.26c23.83-1,28.85-4.77,28.85-12.17,0-6.52-5.14-8.03-10.04-8.03-9.03,0-16.18,6.65-18.19,16.93Z"/>
    <path class="cls-1" d="m1717.64,557.16c-5.9,0-9.53-3.26-9.53-8.53,0-1.25.12-2.63.38-3.64l.5-2.38h-.5c-5.27,10.66-11.29,16.06-21.2,16.06-12.04,0-18.82-9.53-18.82-23.96,0-22.83,11.79-44.28,31.24-44.28,8.4,0,15.3,4.77,16.68,12.42h.63l2.13-10.91h13.05l-10.91,54.32h8.4l-2.13,10.91h-9.91Zm-12.67-15.93c3.64-3.89,6.02-8.78,7.15-14.55l2.63-13.17c1.13-5.77-3.76-11.92-12.54-11.92-9.66,0-15.56,6.15-17.81,17.56l-1.88,9.16c-.38,2.01-.63,4.77-.63,6.77,0,7.28,3.51,12.42,10.41,12.42,5.39,0,9.28-2.63,12.67-6.27Z"/>
    <path class="cls-1" d="m1737.46,557.16l13.05-65.23h13.05l-2.76,13.92h.75c3.14-6.65,8.91-13.92,19.32-13.92h3.64l-2.63,12.92h-4.39c-11.54,0-17.69,5.9-19.57,15.43l-7.4,36.88h-13.05Z"/>
    <path class="cls-1" d="m1784.23,531.32c0-22.83,13.42-40.89,33.12-40.89,11.92,0,20.2,6.52,22.33,15.93l-10.91,4.39c-1.88-5.9-5.14-9.28-12.04-9.28-9.03,0-14.8,6.02-16.81,16.43l-2.13,10.79c-.38,1.88-.63,3.89-.63,5.52,0,7.9,4.14,13.42,12.79,13.42,6.4,0,10.54-3.51,15.05-11.67l10.04,4.77c-5.52,11.67-14.55,17.94-26.34,17.94-14.55,0-24.46-9.41-24.46-27.35Z"/>
    <path class="cls-1" d="m1860.15,464.33h13.05l-8.28,41.52h.63c4.77-10.04,11.04-15.43,20.7-15.43,10.79,0,16.31,6.52,16.31,17.56,0,2.76-.38,5.52-1,8.78l-5.9,29.48h7.9l-2.13,10.91h-9.91c-5.52,0-9.03-2.89-9.03-8.28,0-1,.13-2.26.25-3.01l5.64-28.22c.5-2.51.75-4.89.75-6.9,0-5.77-2.51-9.03-8.53-9.03-4.52,0-8.28,2.01-11.42,5.52-3.64,4.01-6.52,9.66-7.53,14.8l-7.02,35.12h-13.05l18.57-92.83Z"/>
    <path class="cls-1" d="m1946.7,523.41c0-30.48,17.94-55.32,43.28-55.32,14.8,0,24.59,7.02,28.73,20.57l-12.17,5.27c-2.51-8.53-7.53-13.67-17.69-13.67-12.67,0-21.95,9.66-24.96,24.46l-2.89,14.18c-.63,2.88-.75,5.27-.75,7.4,0,12.42,6.4,20.2,17.69,20.2s17.06-5.77,22.08-14.93l11.29,5.39c-7.65,14.8-18.94,21.7-34.37,21.7-17.69,0-30.23-12.17-30.23-35.25Z"/>
    <path class="cls-1" d="m2019.69,531.06c0-21.33,13.67-40.64,34.62-40.64,10.54,0,21.95,5.02,21.95,17.81,0,13.8-13.42,21.33-43.28,21.95-.25,1.63-.38,3.14-.38,4.14,0,8.03,4.39,13.3,13.8,13.3,7.15,0,12.8-3.14,18.19-9.78l8.28,6.9c-8.15,10.16-17.19,13.92-27.35,13.92-16.81,0-25.84-10.16-25.84-27.6Zm15.43-13.3l-.63,3.26c23.83-1,28.85-4.77,28.85-12.17,0-6.52-5.14-8.03-10.04-8.03-9.03,0-16.18,6.65-18.19,16.93Z"/>
    <path class="cls-1" d="m2080.15,557.16l13.05-65.23h13.05l-2.76,13.92h.63c4.77-10.04,11.04-15.43,20.7-15.43,10.79,0,16.31,6.52,16.31,17.56,0,2.76-.38,5.52-1,8.78l-5.9,29.48h7.9l-2.13,10.91h-9.91c-5.52,0-9.03-2.89-9.03-8.28,0-1,0-1.51.25-3.01l5.64-28.22c.5-2.51.75-4.89.75-6.9,0-5.77-2.51-9.03-8.53-9.03-4.52,0-8.28,2.01-11.42,5.52-3.64,4.01-6.52,9.66-7.53,14.8l-7.02,35.12h-13.05Z"/>
    <path class="cls-1" d="m2165.19,557.16c-8.03,0-11.67-3.76-11.67-9.91,0-1.38.25-3.26.5-4.77l7.9-39.64h-9.53l2.13-10.91h4.89c4.89,0,6.02-1.88,6.9-6.4l2.26-11.42h12.17l-3.51,17.81h13.05l-2.13,10.91h-13.17l-8.66,43.4h12.67l-2.13,10.91h-11.67Z"/>
    <path class="cls-1" d="m2189.26,531.06c0-21.33,13.67-40.64,34.62-40.64,10.54,0,21.95,5.02,21.95,17.81,0,13.8-13.42,21.33-43.28,21.95-.25,1.63-.38,3.14-.38,4.14,0,8.03,4.39,13.3,13.8,13.3,7.15,0,12.79-3.14,18.19-9.78l8.28,6.9c-8.15,10.16-17.19,13.92-27.35,13.92-16.81,0-25.84-10.16-25.84-27.6Zm15.43-13.3l-.63,3.26c23.83-1,28.85-4.77,28.85-12.17,0-6.52-5.14-8.03-10.04-8.03-9.03,0-16.18,6.65-18.19,16.93Z"/>
    <path class="cls-1" d="m2249.72,557.16l13.05-65.23h13.05l-2.76,13.92h.75c3.14-6.65,8.91-13.92,19.32-13.92h3.64l-2.63,12.92h-4.39c-11.54,0-17.69,5.9-19.57,15.43l-7.4,36.88h-13.05Z"/>
    <path class="cls-1" d="m2341.29,566.06c-2.01,10.29-7.65,16.18-19.32,16.18h-8.78l2.13-10.91h11.79l13.8-68.49h-9.78l2.13-10.91h9.91l2.26-11.42c2.01-10.29,7.65-16.18,19.32-16.18h9.66l-2.13,10.91h-12.79l-3.26,16.68h12.67l-2.13,10.91h-12.79l-12.67,63.22Z"/>
    <path class="cls-1" d="m2367.2,531.69c0-22.58,13.92-41.27,33.62-41.27,14.68,0,24.59,9.53,24.59,26.97,0,22.58-13.92,41.27-33.62,41.27-14.68,0-24.59-9.53-24.59-26.97Zm42.65-1.76l2.13-10.41c.25-1.38.5-3.14.5-4.89,0-7.9-4.39-13.17-12.67-13.17s-14.8,6.15-17.06,17.69l-2.13,10.41c-.25,1.5-.5,3.14-.5,4.89,0,7.9,4.39,13.17,12.67,13.17s14.8-6.15,17.06-17.69Z"/>
    <path class="cls-1" d="m2431.01,557.16l13.05-65.23h13.05l-2.76,13.92h.75c3.14-6.65,8.91-13.92,19.32-13.92h3.64l-2.63,12.92h-4.39c-11.54,0-17.69,5.9-19.57,15.43l-7.4,36.88h-13.05Z"/>
    <path class="cls-1" d="m994.6,702.16l-2.76-23.71h-31.36l-12.17,23.71h-14.55l46.04-87.56h17.56l11.04,87.56h-13.8Zm-8.03-75.01h-.88l-19.57,39.51h24.59l-4.14-39.51Z"/>
    <path class="cls-1" d="m1017.61,702.16l13.05-65.23h13.05l-2.76,13.92h.75c3.14-6.65,8.91-13.92,19.32-13.92h3.64l-2.63,12.92h-4.39c-11.54,0-17.69,5.9-19.57,15.43l-7.4,36.88h-13.05Z"/>
    <path class="cls-1" d="m1081.84,702.16c-8.03,0-11.67-3.76-11.67-9.91,0-1.38.25-3.26.5-4.77l7.9-39.64h-9.53l2.13-10.91h4.89c4.89,0,6.02-1.88,6.9-6.4l2.26-11.42h12.17l-3.51,17.81h13.05l-2.13,10.91h-13.17l-8.66,43.4h12.67l-2.13,10.91h-11.67Z"/>
    <path class="cls-1" d="m1115.4,702.16c-6.27,0-9.78-3.64-9.78-8.78,0-1,.12-1.88.38-3.14l10.66-53.31h13.05l-10.91,54.32h8.41l-2.13,10.91h-9.66Zm3.51-82.17c0-1,.25-2.51.63-4.39.88-3.89,3.14-6.77,9.03-6.77,4.89,0,6.9,2.26,6.9,5.27,0,1-.25,2.51-.63,4.39-.88,3.89-3.14,6.77-9.03,6.77-4.89,0-6.9-2.26-6.9-5.27Z"/>
    <path class="cls-1" d="m1140.71,636.93h9.78l2.26-11.42c2.13-10.29,7.4-16.18,18.44-16.18h10.16l-2.13,10.91h-12.42l-3.39,16.68h36.25l-10.91,54.32h8.41l-2.13,10.91h-9.78c-6.15,0-9.66-3.64-9.66-8.78,0-1,.25-2.26.38-2.88l8.53-42.65h-23.21l-12.67,63.1c-2.13,10.41-7.4,16.31-18.31,16.31h-9.78l2.13-10.91h11.92l13.8-68.49h-9.79l2.13-10.91Zm48.17-17.06c0-1,.25-2.26.63-4.14.88-3.89,3.14-6.77,9.03-6.77,4.89,0,6.9,2.26,6.9,5.27,0,1-.25,2.26-.63,4.14-.88,3.89-3.14,6.77-9.03,6.77-4.89,0-6.9-2.26-6.9-5.27Z"/>
    <path class="cls-1" d="m1206.83,676.32c0-22.83,13.42-40.89,33.12-40.89,11.92,0,20.2,6.52,22.33,15.93l-10.91,4.39c-1.88-5.9-5.14-9.28-12.04-9.28-9.03,0-14.8,6.02-16.81,16.43l-2.13,10.79c-.38,1.88-.63,3.89-.63,5.52,0,7.9,4.14,13.42,12.79,13.42,6.4,0,10.54-3.51,15.05-11.67l10.04,4.77c-5.52,11.67-14.55,17.94-26.34,17.94-14.55,0-24.46-9.41-24.46-27.35Z"/>
    <path class="cls-1" d="m1275.76,702.16c-6.27,0-9.78-3.64-9.78-8.78,0-1,.12-1.88.38-3.14l10.66-53.31h13.05l-10.91,54.32h8.41l-2.13,10.91h-9.66Zm3.51-82.17c0-1,.25-2.51.63-4.39.88-3.89,3.14-6.77,9.03-6.77,4.89,0,6.9,2.26,6.9,5.27,0,1-.25,2.51-.63,4.39-.88,3.89-3.14,6.77-9.03,6.77-4.89,0-6.9-2.26-6.9-5.27Z"/>
    <path class="cls-1" d="m1346.2,702.16c-5.9,0-9.53-3.26-9.53-8.53,0-1.25.13-2.63.38-3.64l.5-2.38h-.5c-5.27,10.66-11.29,16.06-21.2,16.06-12.04,0-18.82-9.53-18.82-23.96,0-22.83,11.79-44.28,31.24-44.28,8.4,0,15.3,4.77,16.68,12.42h.63l2.13-10.91h13.05l-10.91,54.32h8.4l-2.13,10.91h-9.91Zm-12.67-15.93c3.64-3.89,6.02-8.78,7.15-14.55l2.63-13.17c1.13-5.77-3.76-11.92-12.54-11.92-9.66,0-15.55,6.15-17.81,17.56l-1.88,9.16c-.38,2.01-.63,4.77-.63,6.77,0,7.28,3.51,12.42,10.41,12.42,5.39,0,9.28-2.63,12.67-6.27Z"/>
    <path class="cls-1" d="m1377.4,702.16c-6.27,0-9.79-3.64-9.79-8.78,0-1,.13-1.88.38-3.14l16.18-80.91h13.05l-16.43,81.91h9.03l-2.13,10.91h-10.29Z"/>
    <path class="cls-1" d="m1426.2,702.16l2.26-11.29h11.29l13.05-64.98h-11.29l2.26-11.29h36.13l-2.26,11.29h-11.29l-13.05,64.98h11.29l-2.26,11.29h-36.13Z"/>
    <path class="cls-1" d="m1473.74,702.16l13.05-65.23h13.05l-2.76,13.92h.63c4.77-10.04,11.04-15.43,20.7-15.43,10.79,0,16.31,6.52,16.31,17.56,0,2.76-.38,5.52-1,8.78l-5.9,29.48h7.9l-2.13,10.91h-9.91c-5.52,0-9.03-2.89-9.03-8.28,0-1,0-1.51.25-3.01l5.64-28.22c.5-2.51.75-4.89.75-6.9,0-5.77-2.51-9.03-8.53-9.03-4.52,0-8.28,2.01-11.42,5.52-3.64,4.01-6.52,9.66-7.53,14.8l-7.02,35.12h-13.05Z"/>
    <path class="cls-1" d="m1558.77,702.16c-8.03,0-11.67-3.76-11.67-9.91,0-1.38.25-3.26.5-4.77l7.9-39.64h-9.53l2.13-10.91h4.89c4.89,0,6.02-1.88,6.9-6.4l2.26-11.42h12.17l-3.51,17.81h13.05l-2.13,10.91h-13.17l-8.66,43.4h12.67l-2.13,10.91h-11.67Z"/>
    <path class="cls-1" d="m1582.84,676.06c0-21.33,13.67-40.64,34.62-40.64,10.54,0,21.95,5.02,21.95,17.81,0,13.8-13.42,21.33-43.28,21.95-.25,1.63-.38,3.14-.38,4.14,0,8.03,4.39,13.3,13.8,13.3,7.15,0,12.8-3.14,18.19-9.78l8.28,6.9c-8.15,10.16-17.19,13.92-27.35,13.92-16.81,0-25.84-10.16-25.84-27.6Zm15.43-13.3l-.63,3.26c23.83-1,28.85-4.77,28.85-12.17,0-6.52-5.14-8.03-10.04-8.03-9.03,0-16.18,6.65-18.19,16.93Z"/>
    <path class="cls-1" d="m1654.74,702.16c-6.27,0-9.78-3.64-9.78-8.78,0-1,.12-1.88.38-3.14l16.18-80.91h13.05l-16.43,81.91h9.03l-2.13,10.91h-10.29Z"/>
    <path class="cls-1" d="m1685.65,702.16c-6.27,0-9.79-3.64-9.79-8.78,0-1,.13-1.88.38-3.14l16.18-80.91h13.05l-16.43,81.91h9.03l-2.13,10.91h-10.29Z"/>
    <path class="cls-1" d="m1716.62,702.16c-6.27,0-9.78-3.64-9.78-8.78,0-1,.12-1.88.38-3.14l10.66-53.31h13.05l-10.91,54.32h8.41l-2.13,10.91h-9.66Zm3.51-82.17c0-1,.25-2.51.63-4.39.88-3.89,3.14-6.77,9.03-6.77,4.89,0,6.9,2.26,6.9,5.27,0,1-.25,2.51-.63,4.39-.88,3.89-3.14,6.77-9.03,6.77-4.89,0-6.9-2.26-6.9-5.27Z"/>
    <path class="cls-1" d="m1756.56,728.75c-19.19,0-26.84-5.65-26.84-14.43,0-7.28,5.02-11.79,13.42-14.05l.25-.88c-4.52-1.38-6.27-4.52-6.27-8.78,0-6.65,5.39-10.91,13.55-12.54l.12-.88c-5.9-3.14-8.91-8.78-8.91-16.43,0-13.67,10.29-25.34,28.73-25.34,4.52,0,8.53.88,11.79,2.26l.38-2.01c1.13-6.02,4.26-9.16,9.78-9.16h9.53l-2.13,10.79h-12.17l-.75,3.64c3.76,3.26,5.77,7.9,5.77,13.67,0,13.55-10.66,25.21-29.1,25.21-2.63,0-4.89-.25-7.15-.75-4.64,1.13-8.03,3.39-8.03,7.03,0,3.01,2.38,4.39,7.78,4.39h15.18c14.43,0,20.7,5.39,20.7,15.55,0,11.29-7.78,22.71-35.63,22.71Zm12.67-26.59h-21.95c-4.01,2.13-5.77,5.27-5.77,8.78,0,4.77,3.14,8.15,12.54,8.15h6.9c12.92,0,18.06-4.39,18.06-10.29,0-4.14-2.38-6.65-9.78-6.65Zm9.91-42.65c.63-3.39.75-4.89.75-6.02,0-5.27-3.39-8.53-10.66-8.53-8.15,0-12.54,4.14-13.92,10.79-.75,3.89-.75,4.89-.75,6.02,0,5.39,3.39,8.53,10.66,8.53,8.15,0,12.67-4.27,13.92-10.79Z"/>
    <path class="cls-1" d="m1800.03,676.06c0-21.33,13.67-40.64,34.62-40.64,10.54,0,21.95,5.02,21.95,17.81,0,13.8-13.42,21.33-43.28,21.95-.25,1.63-.38,3.14-.38,4.14,0,8.03,4.39,13.3,13.8,13.3,7.15,0,12.79-3.14,18.19-9.78l8.28,6.9c-8.15,10.16-17.19,13.92-27.35,13.92-16.81,0-25.84-10.16-25.84-27.6Zm15.43-13.3l-.63,3.26c23.83-1,28.85-4.77,28.85-12.17,0-6.52-5.14-8.03-10.04-8.03-9.03,0-16.18,6.65-18.19,16.93Z"/>
    <path class="cls-1" d="m1860.5,702.16l13.05-65.23h13.05l-2.76,13.92h.63c4.77-10.04,11.04-15.43,20.7-15.43,10.79,0,16.31,6.52,16.31,17.56,0,2.76-.38,5.52-1,8.78l-5.9,29.48h7.9l-2.13,10.91h-9.91c-5.52,0-9.03-2.89-9.03-8.28,0-1,0-1.51.25-3.01l5.64-28.22c.5-2.51.75-4.89.75-6.9,0-5.77-2.51-9.03-8.53-9.03-4.52,0-8.28,2.01-11.42,5.52-3.64,4.01-6.52,9.66-7.53,14.8l-7.02,35.12h-13.05Z"/>
    <path class="cls-1" d="m1931.63,676.32c0-22.83,13.42-40.89,33.12-40.89,11.92,0,20.2,6.52,22.33,15.93l-10.91,4.39c-1.88-5.9-5.14-9.28-12.04-9.28-9.03,0-14.8,6.02-16.81,16.43l-2.13,10.79c-.38,1.88-.63,3.89-.63,5.52,0,7.9,4.14,13.42,12.79,13.42,6.4,0,10.54-3.51,15.05-11.67l10.04,4.77c-5.52,11.67-14.55,17.94-26.34,17.94-14.55,0-24.46-9.41-24.46-27.35Z"/>
    <path class="cls-1" d="m1990.72,676.06c0-21.33,13.67-40.64,34.62-40.64,10.54,0,21.95,5.02,21.95,17.81,0,13.8-13.42,21.33-43.28,21.95-.25,1.63-.38,3.14-.38,4.14,0,8.03,4.39,13.3,13.8,13.3,7.15,0,12.79-3.14,18.19-9.78l8.28,6.9c-8.15,10.16-17.19,13.92-27.35,13.92-16.81,0-25.84-10.16-25.84-27.6Zm15.43-13.3l-.63,3.26c23.83-1,28.85-4.77,28.85-12.17,0-6.52-5.14-8.03-10.04-8.03-9.03,0-16.18,6.65-18.19,16.93Z"/>
  </g>
</svg>